<?xml version="1.0" encoding="UTF-8"?>
<svg width="31px" height="26px" viewBox="0 0 31 26" version="1.1" xmlns="http://www.w3.org/2000/svg" xmlns:xlink="http://www.w3.org/1999/xlink">
    <title>Twitter</title>
    <g id="Homepage" stroke="none" stroke-width="1" fill="none" fill-rule="evenodd">
        <g id="mobile/hamburger-menu" transform="translate(-274.000000, -513.000000)" fill="#FFFFFF" fill-rule="nonzero">
            <g id="Twitter" transform="translate(274.000000, 513.000000)">
                <path d="M30.1414722,0.472193548 C28.9118056,1.21277419 27.5521111,1.74787097 26.102,2.03806452 C24.9446667,0.782516129 23.2904722,-1.83251264e-13 21.4606111,-1.83251264e-13 C17.949,-1.83251264e-13 15.1030278,2.88935484 15.1030278,6.45303226 C15.1030278,6.95877419 15.1555556,7.45193548 15.2649167,7.92245161 C9.98113889,7.65322581 5.29583333,5.08677419 2.15708333,1.17922581 C1.60941667,2.13535484 1.29683333,3.24329032 1.29683333,4.42503226 C1.29683333,6.66270968 2.41972222,8.63870968 4.12644444,9.79780645 C3.08363889,9.76425806 2.10283333,9.47070968 1.24430556,8.99096774 L1.24430556,9.07064516 C1.24430556,12.1981935 3.43497222,14.8074194 6.34811111,15.3987097 C5.81336111,15.5505161 5.25277778,15.626 4.67066667,15.626 C4.26163889,15.626 3.86122222,15.5874194 3.47544444,15.5110968 C4.28316667,18.0741935 6.63227778,19.9428387 9.41625,19.9923226 C7.2385,21.7242581 4.49586111,22.7541935 1.51727778,22.7541935 C1.00405556,22.7541935 0.496861111,22.7265161 0,22.6652903 C2.81497222,24.4953548 6.15780556,25.563871 9.7495,25.563871 C21.4494167,25.563871 27.8431667,15.73 27.8431667,7.20116129 C27.8431667,6.92019355 27.8397222,6.64174194 27.8268056,6.36664516 C29.0693889,5.45664516 30.1500833,4.31935484 31,3.0243871 C29.8590278,3.53767742 28.6328056,3.88490323 27.3480278,4.04006452 C28.6620833,3.24245161 29.6695833,1.97767742 30.1431944,0.471354839 L30.1414722,0.472193548 Z"></path>
            </g>
        </g>
    </g>
</svg>