<?xml version="1.0" encoding="UTF-8"?>
<svg width="26px" height="26px" viewBox="0 0 26 26" version="1.1" xmlns="http://www.w3.org/2000/svg" xmlns:xlink="http://www.w3.org/1999/xlink">
    <title>Instagram</title>
    <g id="Homepage" stroke="none" stroke-width="1" fill="none" fill-rule="evenodd">
        <g id="mobile/hamburger-menu" transform="translate(-70.000000, -513.000000)" fill="#FFFFFF" fill-rule="nonzero">
            <g id="Instagram" transform="translate(70.000000, 513.000000)">
                <path d="M20.6205161,1.19187814e-14 L4.94,1.19187814e-14 C2.21670968,1.19187814e-14 -2.05152024e-12,2.2276129 -2.05152024e-12,4.96683871 L-2.05152024e-12,20.7337419 C-2.05152024e-12,23.4729677 2.21670968,25.7005806 4.94,25.7005806 L20.6205161,25.7005806 C23.3438065,25.7005806 25.5605161,23.4729677 25.5605161,20.7337419 L25.5605161,4.96683871 C25.5605161,2.2276129 23.3438065,1.19187814e-14 20.6205161,1.19187814e-14 L20.6205161,1.19187814e-14 L20.6205161,1.19187814e-14 L20.6205161,1.19187814e-14 Z M22.0379355,2.96316129 L22.6032258,2.95980645 L22.6032258,7.31606452 L18.283871,7.32948387 L18.2687742,2.97322581 L22.0379355,2.96232258 L22.0379355,2.96316129 Z M9.13270968,10.212129 C9.95045161,9.07316129 11.2789677,8.32670968 12.7802581,8.32670968 C14.2815484,8.32670968 15.6100645,9.07316129 16.4278065,10.212129 C16.9612258,10.9552258 17.2799355,11.8652258 17.2799355,12.8507097 C17.2799355,15.3441935 15.2611613,17.3730323 12.7802581,17.3730323 C10.3001935,17.3730323 8.28225806,15.3433548 8.28225806,12.8507097 C8.28225806,11.8652258 8.60096774,10.9560645 9.13270968,10.212129 L9.13270968,10.212129 L9.13270968,10.212129 L9.13270968,10.212129 Z M23.0703871,20.7337419 C23.0703871,22.0924516 21.9716774,23.1970323 20.6205161,23.1970323 L4.94,23.1970323 C3.58883871,23.1970323 2.49012903,22.0924516 2.49012903,20.7337419 L2.49012903,10.212129 L6.30709677,10.212129 C5.97664516,11.0281935 5.79129032,11.9180645 5.79129032,12.8507097 C5.79129032,16.7255484 8.9263871,19.8790968 12.7794194,19.8790968 C16.634129,19.8790968 19.7692258,16.7255484 19.7692258,12.8507097 C19.7692258,11.9180645 19.5813548,11.0281935 19.2534194,10.212129 L23.0695484,10.212129 L23.0695484,20.7337419 L23.0703871,20.7337419 Z"></path>
            </g>
        </g>
    </g>
</svg>