<?xml version="1.0" encoding="UTF-8"?>
<svg width="214px" height="92px" viewBox="0 0 214 92" version="1.1" xmlns="http://www.w3.org/2000/svg" xmlns:xlink="http://www.w3.org/1999/xlink">
    <title>logo</title>
    <g id="Age-Gate" stroke="none" stroke-width="1" fill="none" fill-rule="evenodd">
        <g id="desktop/age-gate" transform="translate(-614.000000, -195.000000)" fill="#000000">
            <g id="LOGO" transform="translate(614.000000, 195.138509)">
                <g id="Group-5">
                    <path d="M0,0.00790625 L0,12.12675 L9.08571875,12.12675 L9.08571875,9.10009375 L15.890125,9.10009375 L15.890125,48.5235313 L26.2915156,48.5235313 L26.2915156,9.10009375 L33.0959219,9.10009375 L33.0959219,12.12675 L42.1816406,12.12675 L42.1816406,0.00790625 L0,0.00790625 Z M213.791828,0.00790625 L201.935688,0.00790625 L190.786078,19.5363438 L179.637547,0.00790625 L167.781406,0.00790625 L185.586281,28.810375 L185.586281,48.5235313 L195.986953,48.5235313 L195.986953,28.810375 L213.791828,0.00790625 Z M154.754781,0.00790625 L144.353391,0.00790625 L144.353391,48.5235313 L175.464484,48.5235313 L175.464484,39.4317031 L154.754781,39.4317031 L154.754781,0.00790625 Z M124.707797,29.2973281 C124.707797,36.0622031 121.689047,40.7171875 114.451594,40.7171875 C107.213781,40.7171875 104.194672,36.0622031 104.194672,29.2973281 L104.194672,0.007546875 L93.7932813,0.007546875 L93.7932813,29.6610156 C93.7932813,41.6026875 99.9396719,49.8819688 114.451594,49.8819688 C128.962438,49.8819688 135.109188,41.6026875 135.109188,29.6610156 L135.109188,0.007546875 L124.707797,0.007546875 L124.707797,29.2973281 Z M69.158125,22.2657969 C73.3045938,22.2657969 76.431875,19.6470312 76.431875,15.573875 C76.431875,11.5007188 73.3045938,8.88195313 69.158125,8.88195313 L59.0920313,8.88195313 L59.0920313,22.2657969 L69.158125,22.2657969 L69.158125,22.2657969 Z M86.9795313,15.6464687 C86.9795313,24.2297813 81.5964531,28.8118125 76.3592813,30.0484219 L87.270625,48.5235313 L75.4137656,48.5235313 L65.8852969,31.1394844 L59.0920313,31.1394844 L59.0920313,48.5235313 L48.6906406,48.5235313 L48.6906406,0.00790625 L70.6861875,0.00790625 C80.7964844,0.00790625 86.9795313,6.626875 86.9795313,15.6464687 L86.9795313,15.6464687 Z M202.316625,79.5217813 L202.316625,82.5480781 L8.84170313,82.5480781 L8.84170313,79.5217813 L0,79.5217813 L0,91.6402656 L211.158688,91.6402656 L211.158688,79.5217813 L202.316625,79.5217813 Z M193.360641,63.1490156 C193.360641,64.2889531 192.501016,64.9688906 191.380844,64.9688906 L188.380422,64.9688906 L188.380422,61.3690313 L191.380844,61.3690313 C192.501016,61.3690313 193.360641,62.0489688 193.360641,63.1490156 L193.360641,63.1490156 Z M196.361422,72.2102969 L193.340875,67.1298125 C194.780891,66.7898438 196.280563,65.5093906 196.280563,63.1691406 C196.280563,60.6890938 194.561313,58.8685 191.780469,58.8685 L185.539922,58.8685 L185.539922,72.2102969 L188.380422,72.2102969 L188.380422,67.4697812 L190.460484,67.4697812 L193.080328,72.2102969 L196.361422,72.2102969 Z M179.379875,72.2099375 L179.379875,69.7094063 L172.718859,69.7094063 L172.718859,66.6690937 L178.872078,66.6690937 L178.872078,64.1692812 L172.718859,64.1692812 L172.718859,61.3686719 L179.3195,61.3686719 L179.3195,58.8688594 L169.878359,58.8688594 L169.878359,72.2099375 L179.379875,72.2099375 Z M120.146609,72.2099375 L120.146609,69.7094063 L113.485594,69.7094063 L113.485594,66.6690937 L119.638813,66.6690937 L119.638813,64.1692812 L113.485594,64.1692812 L113.485594,61.3686719 L120.086234,61.3686719 L120.086234,58.8688594 L110.644734,58.8688594 L110.644734,72.2099375 L120.146609,72.2099375 Z M163.717594,72.2099375 L163.717594,69.7094063 L157.276156,69.7094063 L163.576359,61.1490938 L163.576359,58.8688594 L153.556266,58.8688594 L153.556266,61.3686719 L159.856469,61.3686719 L153.556266,69.9102969 L153.556266,72.2099375 L163.717594,72.2099375 Z M144.334703,72.2099375 L144.334703,61.3686719 L148.214875,61.3686719 L148.214875,58.8688594 L137.5745,58.8688594 L137.5745,61.3686719 L141.474437,61.3686719 L141.474437,72.2099375 L144.334703,72.2099375 Z M134.963281,72.2099375 L134.963281,69.7094063 L129.169797,69.7094063 L129.169797,58.8688594 L126.309172,58.8688594 L126.309172,72.2099375 L134.963281,72.2099375 Z M93.7228438,70.3296875 C94.9831719,71.5900156 96.8228125,72.4496406 99.403125,72.4496406 C102.983938,72.4496406 104.744156,70.61 104.744156,68.169125 C104.744156,63.189625 97.0833594,64.6087969 97.0833594,62.5086094 C97.0833594,61.7086406 97.7632969,61.188625 98.9636094,61.188625 C100.323484,61.188625 101.7635,61.6489844 102.843781,62.6487656 L104.424313,60.5288125 C103.104328,59.308375 101.344109,58.6694063 99.2230781,58.6694063 C96.0835781,58.6694063 94.1630781,60.5090469 94.1630781,62.7292656 C94.1630781,67.749375 101.844,66.1296719 101.844,68.4494375 C101.844,69.2292813 101.103688,69.9300625 99.5235156,69.9300625 C97.6835156,69.9300625 96.223375,69.0894844 95.28325,68.1094688 L93.7228438,70.3296875 L93.7228438,70.3296875 Z M78.3142813,65.5295156 C78.3142813,67.8093906 76.7743594,69.7097656 74.1340313,69.7097656 L71.8365469,69.7097656 L71.8365469,61.3690312 L74.1534375,61.3690312 C76.8739063,61.3690312 78.3142813,63.1889063 78.3142813,65.5295156 L78.3142813,65.5295156 Z M74.1534375,72.2102969 C78.3142813,72.2102969 81.2144375,69.5696094 81.2144375,65.5295156 C81.2144375,61.5289531 78.3142813,58.8681406 74.1340313,58.8681406 L68.9960469,58.8681406 L68.9960469,72.2102969 L74.1534375,72.2102969 Z M59.9545313,63.1490156 C59.9545313,64.2889531 59.0945469,64.9688906 57.974375,64.9688906 L54.9739531,64.9688906 L54.9739531,61.3690313 L57.974375,61.3690313 C59.0945469,61.3690313 59.9545313,62.0489688 59.9545313,63.1490156 L59.9545313,63.1490156 Z M62.9549531,72.2102969 L59.9344063,67.1298125 C61.3747813,66.7898438 62.8744531,65.5093906 62.8744531,63.1691406 C62.8744531,60.6890938 61.1548438,58.8685 58.374,58.8685 L52.1334531,58.8685 L52.1334531,72.2102969 L54.9739531,72.2102969 L54.9739531,67.4697812 L57.0540156,67.4697812 L59.6742188,72.2102969 L62.9549531,72.2102969 Z M42.0519063,67.4496562 L37.8914219,67.4496562 L39.9718438,61.709 L42.0519063,67.4496562 Z M46.8919688,72.2102969 L41.7518281,58.8685 L38.1915,58.8685 L33.051,72.2102969 L36.2713594,72.2102969 L37.1112188,69.9494687 L42.8321094,69.9494687 L43.6719688,72.2102969 L46.8919688,72.2102969 Z M24.969375,72.2099375 L24.969375,66.5896719 L18.730625,66.5896719 L18.730625,72.2099375 L15.890125,72.2099375 L15.890125,58.8688594 L18.730625,58.8688594 L18.730625,64.1089063 L24.969375,64.1089063 L24.969375,58.8688594 L27.83,58.8688594 L27.83,72.2099375 L24.969375,72.2099375 L24.969375,72.2099375 Z" id="Fill-1"></path>
                    <polyline id="Fill-3" points="202.316625 79.5217813 202.316625 82.5480781 8.84170313 82.5480781 8.84170313 79.5217813 0 79.5217813 0 91.640625 211.158688 91.640625 211.158688 79.5217813 202.316625 79.5217813"></polyline>
                    <polyline id="Fill-4" points="202.316625 79.5217813 202.316625 82.5480781 8.84170313 82.5480781 8.84170313 79.5217813 0 79.5217813 0 91.640625 211.158688 91.640625 211.158688 79.5217813 202.316625 79.5217813"></polyline>
                </g>
                <path d="M207.880109,46.8973594 C208.011281,46.8973594 208.098609,46.7988906 208.098609,46.6569375 C208.098609,46.5365469 208.011281,46.4380781 207.89125,46.4380781 L207.628547,46.4380781 L207.628547,46.8973594 L207.880109,46.8973594 Z M207.169266,46.0334219 L207.912813,46.0334219 C208.273625,46.0334219 208.536328,46.296125 208.536328,46.6346562 C208.536328,46.8646562 208.4375,47.0500938 208.252063,47.1597031 L208.678281,47.8594062 L208.142453,47.8594062 L207.792781,47.2581719 L207.628547,47.2581719 L207.628547,47.8594062 L207.169266,47.8594062 L207.169266,46.0334219 Z M209.170266,46.9739062 C209.170266,46.1972969 208.590953,45.6506875 207.836625,45.6506875 C207.081938,45.6506875 206.491484,46.1972969 206.491484,46.9739062 C206.491484,47.7390156 207.081938,48.2967656 207.836625,48.2967656 C208.590953,48.2967656 209.170266,47.7390156 209.170266,46.9739062 Z M205.944875,46.9739062 C205.944875,45.9349531 206.786891,45.1371406 207.836625,45.1371406 C208.875219,45.1371406 209.739156,45.9349531 209.739156,46.9739062 C209.739156,48.0232812 208.864078,48.8218125 207.836625,48.8218125 C206.797672,48.8218125 205.944875,48.0232812 205.944875,46.9739062 L205.944875,46.9739062 Z" id="Fill-6"></path>
            </g>
        </g>
    </g>
</svg>